<?xml version="1.0" encoding="UTF-8"?>
<svg width="302px" height="290px" viewBox="0 0 302 290" version="1.1" xmlns="http://www.w3.org/2000/svg" xmlns:xlink="http://www.w3.org/1999/xlink">
    <title>Shape</title>
    <g id="Website" stroke="none" stroke-width="1" fill="none" fill-rule="evenodd">
        <path d="M57.2374101,61.2676056 C58.8273381,159.295775 59.6223022,229.549296 59.6223022,231.183099 C59.6223022,231.183099 59.6223022,232 59.6223022,232.816901 C59.6223022,232.816901 60.4172662,232.816901 61.2122302,232.816901 C82.676259,232.816901 104.140288,232.816901 125.604317,232.816901 C131.169065,232.816901 134.348921,236.084507 134.348921,241.802817 C134.348921,254.873239 134.348921,268.760563 134.348921,281.830986 C134.348921,286.732394 132.758993,290 127.194245,290 C119.244604,290 111.294964,290 103.345324,290 C71.5467626,290 39.7482014,290 7.94964029,290 C3.17985612,290 0,287.549296 0,281.830986 C0,190.338028 0,98.8450704 0,7.35211268 C0,2.45070423 2.38489209,0 7.15467626,0 C26.2338129,0 44.5179856,0 63.5971223,0 C69.9568345,0 75.5215827,4.08450704 80.2913669,7.35211268 C89.8309353,13.0704225 98.5755396,18.7887324 108.115108,24.5070423 C115.269784,29.4084507 123.219424,33.4929577 130.374101,37.5774648 C135.938849,40.8450704 141.503597,44.9295775 147.068345,48.1971831 C152.633094,51.4647887 158.197842,54.7323944 163.76259,58 C169.327338,61.2676056 174.892086,65.3521127 180.456835,68.6197183 C186.816547,72.7042254 193.971223,75.971831 199.535971,80.8732394 C206.690647,85.7746479 215.435252,88.2253521 220.205036,96.3943662 C220.205036,97.2112676 221,98.028169 221,98.028169 C221,120.901408 221,143.774648 221,167.464789 C221,170.732394 219.410072,174 214.640288,174 C201.125899,174 187.611511,174.816901 174.097122,174.816901 C170.122302,174.816901 165.352518,174.816901 162.967626,169.915493 C162.967626,169.098592 162.172662,168.28169 162.172662,167.464789 C162.172662,156.028169 161.377698,144.591549 162.172662,133.15493 C162.172662,126.619718 158.992806,124.985915 155.017986,122.535211 C150.248201,119.267606 144.683453,116 139.913669,112.732394 C133.553957,108.647887 127.194245,104.56338 120.834532,100.478873 C116.064748,97.2112676 110.5,93.943662 105.730216,90.6760563 C99.3705036,86.5915493 93.0107914,82.5070423 86.6510791,79.2394366 C80.2913669,75.1549296 80.2913669,75.1549296 74.7266187,71.0704225 C66.7769784,66.9859155 61.2122302,63.7183099 57.2374101,61.2676056 Z M220.540338,216.271186 C210.971857,209.717514 201.403377,203.983051 191.834897,197.429379 C186.253283,194.152542 181.469043,190.875706 175.88743,186.779661 C169.508443,182.683616 163.129456,178.587571 156.750469,174.491525 C151.966229,172.033898 147.979362,168.757062 143.195122,165.480226 C140.005629,163.841808 136.816135,162.20339 137.613508,157.288136 C138.410882,145 137.613508,132.711864 137.613508,121.242938 C137.613508,117.146893 135.221388,115.508475 132.031895,115.508475 C116.881801,115.508475 101.731707,115.508475 87.3789869,115.508475 C84.1894934,115.508475 81,117.966102 81,122.062147 C81,142.542373 81.7973734,163.841808 81,184.322034 C81,191.694915 84.1894934,195.79096 89.7711069,199.887006 C100.136961,206.440678 110.502814,212.175141 120.071295,218.728814 C129.639775,224.463277 139.208255,230.19774 147.979362,236.751412 C158.345216,243.305085 167.913696,249.858757 178.27955,256.412429 C187.84803,262.146893 197.41651,267.881356 206.187617,273.615819 C211.769231,276.892655 217.350844,280.988701 222.135084,284.265537 C226.121951,286.723164 230.108818,290 235.690432,290 C255.624765,290 276.356473,290 296.290807,290 C297.885553,290 299.4803,289.180791 300.277674,288.361582 C302.669794,285.084746 301.87242,281.80791 301.87242,278.531073 C301.87242,188.418079 301.87242,99.1242938 301.87242,9.01129944 C301.075047,2.45762712 296.290807,0 291.506567,0 C252.435272,0 213.363977,0 174.292683,0 C168.711069,0 167.116323,2.45762712 167.116323,7.37288136 C167.116323,21.299435 167.116323,35.2259887 167.116323,49.1525424 C167.116323,54.0677966 169.508443,55.7062147 173.49531,55.7062147 C196.619137,55.7062147 218.945591,55.7062147 242.069418,55.7062147 C243.664165,55.7062147 243.664165,56.5254237 243.664165,57.3446328 C243.664165,113.870056 243.664165,171.214689 243.664165,227.740113 C243.664165,228.559322 243.664165,229.378531 243.664165,230.19774 C235.690432,226.101695 227.716698,221.186441 220.540338,216.271186 Z" id="Shape" fill="#FFFFFF" fill-rule="nonzero"></path>
    </g>
</svg>