<?xml version="1.0" encoding="UTF-8"?>
<svg width="531px" height="246px" viewBox="0 0 531 246" version="1.1" xmlns="http://www.w3.org/2000/svg" xmlns:xlink="http://www.w3.org/1999/xlink">
    <title>navbarlogo</title>
    <g id="Nous-Landing-Page" stroke="none" stroke-width="1" fill="none" fill-rule="evenodd">
        <g id="Tablet" transform="translate(-341.000000, -61.000000)" fill="#FFFFFF" fill-rule="nonzero">
            <g id="navbarlogo" transform="translate(341.000000, 61.000000)">
                <path d="M26.1582734,88.0985915 C26.8848921,133.056338 27.2482014,165.276056 27.2482014,166.025352 C27.2482014,166.025352 27.2482014,166.4 27.2482014,166.774648 C27.2482014,166.774648 27.6115108,166.774648 27.9748201,166.774648 C37.7841727,166.774648 47.5935252,166.774648 57.4028777,166.774648 C59.9460432,166.774648 61.3992806,168.273239 61.3992806,170.895775 C61.3992806,176.890141 61.3992806,183.259155 61.3992806,189.253521 C61.3992806,191.501408 60.6726619,193 58.1294964,193 C54.4964029,193 50.8633094,193 47.2302158,193 C32.6978417,193 18.1654676,193 3.63309353,193 C1.45323741,193 0,191.876056 0,189.253521 C0,147.292958 0,105.332394 0,63.371831 C0,61.1239437 1.08992806,60 3.26978417,60 C11.9892086,60 20.3453237,60 29.0647482,60 C31.971223,60 34.5143885,61.8732394 36.6942446,63.371831 C41.0539568,65.9943662 45.0503597,68.6169014 49.4100719,71.2394366 C52.6798561,73.4873239 56.3129496,75.3605634 59.5827338,77.2338028 C62.1258993,78.7323944 64.6690647,80.6056338 67.2122302,82.1042254 C69.7553957,83.6028169 72.2985612,85.1014085 74.8417266,86.6 C77.3848921,88.0985915 79.9280576,89.971831 82.471223,91.4704225 C85.3776978,93.343662 88.647482,94.8422535 91.1906475,97.0901408 C94.4604317,99.3380282 98.4568345,100.461972 100.636691,104.208451 C100.636691,104.583099 101,104.957746 101,104.957746 C101,115.447887 101,125.938028 101,136.802817 C101,138.301408 100.273381,139.8 98.0935252,139.8 C91.9172662,139.8 85.7410072,140.174648 79.5647482,140.174648 C77.7482014,140.174648 75.5683453,140.174648 74.4784173,137.926761 C74.4784173,137.552113 74.1151079,137.177465 74.1151079,136.802817 C74.1151079,131.557746 73.7517986,126.312676 74.1151079,121.067606 C74.1151079,118.070423 72.6618705,117.321127 70.8453237,116.197183 C68.6654676,114.698592 66.1223022,113.2 63.942446,111.701408 C61.0359712,109.828169 58.1294964,107.95493 55.2230216,106.08169 C53.0431655,104.583099 50.5,103.084507 48.3201439,101.585915 C45.4136691,99.7126761 42.5071942,97.8394366 39.6007194,96.3408451 C36.6942446,94.4676056 36.6942446,94.4676056 34.1510791,92.5943662 C30.5179856,90.7211268 27.9748201,89.2225352 26.1582734,88.0985915 Z M100.771829,159.186441 C96.3989032,156.180791 92.0259778,153.550847 87.6530524,150.545198 C85.1021792,149.042373 82.9157166,147.539548 80.3648434,145.661017 C77.4495598,143.782486 74.5342762,141.903955 71.6189926,140.025424 C69.4325299,138.898305 67.6104777,137.39548 65.424015,135.892655 C63.9663732,135.141243 62.5087314,134.389831 62.8731419,132.135593 C63.2375523,126.5 62.8731419,120.864407 62.8731419,115.60452 C62.8731419,113.725989 61.7799105,112.974576 60.3222687,112.974576 C53.3984702,112.974576 46.4746717,112.974576 39.9152836,112.974576 C38.4576418,112.974576 37,114.101695 37,115.980226 C37,125.372881 37.3644104,135.141243 37,144.533898 C37,147.915254 38.4576418,149.793785 41.0085149,151.672316 C45.7458508,154.677966 50.4831866,157.30791 54.856112,160.313559 C59.2290374,162.943503 63.6019628,165.573446 67.6104777,168.579096 C72.3478135,171.584746 76.7207389,174.590395 81.4580748,177.596045 C85.8310001,180.225989 90.2039255,182.855932 94.2124405,185.485876 C96.7633136,186.988701 99.3141868,188.867232 101.500649,190.370056 C103.322702,191.497175 105.144754,193 107.695627,193 C116.805888,193 126.28056,193 135.390821,193 C136.119642,193 136.848463,192.624294 137.212873,192.248588 C138.306105,190.745763 137.941694,189.242938 137.941694,187.740113 C137.941694,146.412429 137.941694,105.460452 137.941694,64.1327684 C137.577284,61.1271186 135.390821,60 133.204358,60 C115.348247,60 97.4921345,60 79.6360225,60 C77.0851494,60 76.3563285,61.1271186 76.3563285,63.3813559 C76.3563285,69.7683616 76.3563285,76.1553672 76.3563285,82.5423729 C76.3563285,84.7966102 77.4495598,85.5480226 79.2716121,85.5480226 C89.8395151,85.5480226 100.043008,85.5480226 110.610911,85.5480226 C111.339732,85.5480226 111.339732,85.9237288 111.339732,86.299435 C111.339732,112.223164 111.339732,138.522599 111.339732,164.446328 C111.339732,164.822034 111.339732,165.19774 111.339732,165.573446 C107.695627,163.694915 104.051523,161.440678 100.771829,159.186441 Z" id="Shape"></path>
                <g id="OUS" transform="translate(148.000000, 0.000000)" font-family="Manrope-ExtraBold, Manrope" font-size="180" font-weight="700">
                    <text>
                        <tspan x="0" y="192">OUS</tspan>
                    </text>
                </g>
            </g>
        </g>
    </g>
</svg>