<?xml version="1.0" encoding="UTF-8"?>
<svg width="138px" height="133px" viewBox="0 0 138 133" version="1.1" xmlns="http://www.w3.org/2000/svg" xmlns:xlink="http://www.w3.org/1999/xlink">
    <title>Shape</title>
    <g id="Nous-Landing-Page" stroke="none" stroke-width="1" fill="none" fill-rule="evenodd">
        <g id="Desktop-HD" transform="translate(-350.000000, -364.000000)" fill="#FFFFFF" fill-rule="nonzero">
            <g id="Group" transform="translate(350.000000, 361.000000)">
                <path d="M26.1582734,31.0985915 C26.8848921,76.056338 27.2482014,108.276056 27.2482014,109.025352 C27.2482014,109.025352 27.2482014,109.4 27.2482014,109.774648 C27.2482014,109.774648 27.6115108,109.774648 27.9748201,109.774648 C37.7841727,109.774648 47.5935252,109.774648 57.4028777,109.774648 C59.9460432,109.774648 61.3992806,111.273239 61.3992806,113.895775 C61.3992806,119.890141 61.3992806,126.259155 61.3992806,132.253521 C61.3992806,134.501408 60.6726619,136 58.1294964,136 C54.4964029,136 50.8633094,136 47.2302158,136 C32.6978417,136 18.1654676,136 3.63309353,136 C1.45323741,136 0,134.876056 0,132.253521 C0,90.2929577 0,48.3323944 0,6.37183099 C0,4.12394366 1.08992806,3 3.26978417,3 C11.9892086,3 20.3453237,3 29.0647482,3 C31.971223,3 34.5143885,4.87323944 36.6942446,6.37183099 C41.0539568,8.9943662 45.0503597,11.6169014 49.4100719,14.2394366 C52.6798561,16.4873239 56.3129496,18.3605634 59.5827338,20.2338028 C62.1258993,21.7323944 64.6690647,23.6056338 67.2122302,25.1042254 C69.7553957,26.6028169 72.2985612,28.1014085 74.8417266,29.6 C77.3848921,31.0985915 79.9280576,32.971831 82.471223,34.4704225 C85.3776978,36.343662 88.647482,37.8422535 91.1906475,40.0901408 C94.4604317,42.3380282 98.4568345,43.4619718 100.636691,47.2084507 C100.636691,47.5830986 101,47.9577465 101,47.9577465 C101,58.4478873 101,68.9380282 101,79.8028169 C101,81.3014085 100.273381,82.8 98.0935252,82.8 C91.9172662,82.8 85.7410072,83.1746479 79.5647482,83.1746479 C77.7482014,83.1746479 75.5683453,83.1746479 74.4784173,80.9267606 C74.4784173,80.5521127 74.1151079,80.1774648 74.1151079,79.8028169 C74.1151079,74.5577465 73.7517986,69.3126761 74.1151079,64.0676056 C74.1151079,61.0704225 72.6618705,60.3211268 70.8453237,59.1971831 C68.6654676,57.6985915 66.1223022,56.2 63.942446,54.7014085 C61.0359712,52.828169 58.1294964,50.9549296 55.2230216,49.0816901 C53.0431655,47.5830986 50.5,46.084507 48.3201439,44.5859155 C45.4136691,42.7126761 42.5071942,40.8394366 39.6007194,39.3408451 C36.6942446,37.4676056 36.6942446,37.4676056 34.1510791,35.5943662 C30.5179856,33.7211268 27.9748201,32.2225352 26.1582734,31.0985915 Z M100.771829,102.186441 C96.3989032,99.180791 92.0259778,96.5508475 87.6530524,93.5451977 C85.1021792,92.0423729 82.9157166,90.539548 80.3648434,88.6610169 C77.4495598,86.7824859 74.5342762,84.9039548 71.6189926,83.0254237 C69.4325299,81.8983051 67.6104777,80.3954802 65.424015,78.8926554 C63.9663732,78.1412429 62.5087314,77.3898305 62.8731419,75.1355932 C63.2375523,69.5 62.8731419,63.8644068 62.8731419,58.6045198 C62.8731419,56.7259887 61.7799105,55.9745763 60.3222687,55.9745763 C53.3984702,55.9745763 46.4746717,55.9745763 39.9152836,55.9745763 C38.4576418,55.9745763 37,57.1016949 37,58.980226 C37,68.3728814 37.3644104,78.1412429 37,87.5338983 C37,90.9152542 38.4576418,92.7937853 41.0085149,94.6723164 C45.7458508,97.6779661 50.4831866,100.30791 54.856112,103.313559 C59.2290374,105.943503 63.6019628,108.573446 67.6104777,111.579096 C72.3478135,114.584746 76.7207389,117.590395 81.4580748,120.596045 C85.8310001,123.225989 90.2039255,125.855932 94.2124405,128.485876 C96.7633136,129.988701 99.3141868,131.867232 101.500649,133.370056 C103.322702,134.497175 105.144754,136 107.695627,136 C116.805888,136 126.28056,136 135.390821,136 C136.119642,136 136.848463,135.624294 137.212873,135.248588 C138.306105,133.745763 137.941694,132.242938 137.941694,130.740113 C137.941694,89.4124294 137.941694,48.460452 137.941694,7.13276836 C137.577284,4.12711864 135.390821,3 133.204358,3 C115.348247,3 97.4921345,3 79.6360225,3 C77.0851494,3 76.3563285,4.12711864 76.3563285,6.38135593 C76.3563285,12.7683616 76.3563285,19.1553672 76.3563285,25.5423729 C76.3563285,27.7966102 77.4495598,28.5480226 79.2716121,28.5480226 C89.8395151,28.5480226 100.043008,28.5480226 110.610911,28.5480226 C111.339732,28.5480226 111.339732,28.9237288 111.339732,29.299435 C111.339732,55.2231638 111.339732,81.5225989 111.339732,107.446328 C111.339732,107.822034 111.339732,108.19774 111.339732,108.573446 C107.695627,106.694915 104.051523,104.440678 100.771829,102.186441 Z" id="Shape"></path>
            </g>
        </g>
    </g>
</svg>